<svg xmlns="http://www.w3.org/2000/svg" xmlns:xlink="http://www.w3.org/1999/xlink" width="803" height="660" viewBox="0 0 803 660" fill="none"><defs><linearGradient id="linear_0" x1="50%" y1="48.51140202702703%" x2="51%" y2="100%" gradientUnits="objectBoundingBox"><stop offset="0" stop-color="#32C5FF" stop-opacity="1" /><stop offset="0.4851140202702703" stop-color="#24205e9F9" stop-opacity="1" /><stop offset="1" stop-color="#32C5FF" stop-opacity="1" /></linearGradient><filter id="filter_2" x="2" y="1" width="800" height="658" filterUnits="userSpaceOnUse" color-interpolation-filters="sRGB"></filter></defs><g opacity="1" transform="translate(0 0)  rotate(0 401.5 330)"><path id="矩形" fill-rule="evenodd" style="fill:#32C5FF" transform="translate(2 1)  rotate(0 400 329)" opacity="0.1" d="M20,658L780,658C791.05,658 800,649.05 800,638L800,20C800,8.95 791.05,0 780,0L20,0C8.95,0 0,8.95 0,20L0,638C0,649.05 8.95,658 20,658Z " /><rect id="矩形" style="stroke:url(#linear_0); stroke-width:1; stroke-opacity:100; stroke-dasharray:0 0" transform="translate(2 1)  rotate(0 400 329)" x="0.5" y="0.5" rx="19.5"  width="799" height="657" /><rect  id="矩形" style="stroke:#24205eFFF; stroke-width:2; stroke-opacity:1; stroke-dasharray:0 0" transform="translate(2 1)  rotate(0 400 329)" x="1" y="1" rx="19"  width="800" height="656" /><path id="矩形" fill-rule="evenodd" style="fill:#32C5FF" transform="translate(0 222)  rotate(0 1.5 53.5)" opacity="1" d="M1.5,107L1.5,107C1.9,107 2.28,106.84 2.56,106.56C2.84,106.28 3,105.9 3,105.5L3,1.5C3,1.1 2.84,0.72 2.56,0.44C2.28,0.16 1.9,0 1.5,0L1.5,0C1.1,0 0.72,0.16 0.44,0.44C0.16,0.72 0,1.1 0,1.5L0,105.5C0,105.9 0.16,106.28 0.44,106.56C0.72,106.84 1.1,107 1.5,107Z " /><path id="矩形复制 79" fill-rule="evenodd" style="fill:#32C5FF" transform="translate(800 144)  rotate(0 1.5 53.5)" opacity="1" d="M1.5,107L1.5,107C1.9,107 2.28,106.84 2.56,106.56C2.84,106.28 3,105.9 3,105.5L3,1.5C3,1.1 2.84,0.72 2.56,0.44C2.28,0.16 1.9,0 1.5,0L1.5,0C1.1,0 0.72,0.16 0.44,0.44C0.16,0.72 0,1.1 0,1.5L0,105.5C0,105.9 0.16,106.28 0.44,106.56C0.72,106.84 1.1,107 1.5,107Z " /><path id="矩形复制 138" fill-rule="evenodd" style="fill:#32C5FF" transform="translate(1 537)  rotate(0 1.5 21)" opacity="1" d="M1.5,42L1.5,42C1.9,42 2.28,41.84 2.56,41.56C2.84,41.28 3,40.9 3,40.5L3,1.5C3,1.1 2.84,0.72 2.56,0.44C2.28,0.16 1.9,0 1.5,0L1.5,0C1.1,0 0.72,0.16 0.44,0.44C0.16,0.72 0,1.1 0,1.5L0,40.5C0,40.9 0.16,41.28 0.44,41.56C0.72,41.84 1.1,42 1.5,42Z " /><path id="矩形复制 139" fill-rule="evenodd" style="fill:#32C5FF" transform="translate(800 430)  rotate(0 1.5 21)" opacity="1" d="M1.5,42L1.5,42C1.9,42 2.28,41.84 2.56,41.56C2.84,41.28 3,40.9 3,40.5L3,1.5C3,1.1 2.84,0.72 2.56,0.44C2.28,0.16 1.9,0 1.5,0L1.5,0C1.1,0 0.72,0.16 0.44,0.44C0.16,0.72 0,1.1 0,1.5L0,40.5C0,40.9 0.16,41.28 0.44,41.56C0.72,41.84 1.1,42 1.5,42Z " /><path id="矩形复制 80" fill-rule="evenodd" style="fill:#32C5FF" transform="translate(521 -47)  rotate(90 1.5 49)" opacity="1" d="M1.5,98L1.5,98C1.9,98 2.28,97.84 2.56,97.56C2.84,97.28 3,96.9 3,96.5L3,1.5C3,1.1 2.84,0.72 2.56,0.44C2.28,0.16 1.9,0 1.5,0L1.5,0C1.1,0 0.72,0.16 0.44,0.44C0.16,0.72 0,1.1 0,1.5L0,96.5C0,96.9 0.16,97.28 0.44,97.56C0.72,97.84 1.1,98 1.5,98Z " /><path id="矩形复制 106" fill-rule="evenodd" style="fill:#32C5FF" transform="translate(200 609)  rotate(90 1.5 49)" opacity="1" d="M1.5,98L1.5,98C1.9,98 2.28,97.84 2.56,97.56C2.84,97.28 3,96.9 3,96.5L3,1.5C3,1.1 2.84,0.72 2.56,0.44C2.28,0.16 1.9,0 1.5,0L1.5,0C1.1,0 0.72,0.16 0.44,0.44C0.16,0.72 0,1.1 0,1.5L0,96.5C0,96.9 0.16,97.28 0.44,97.56C0.72,97.84 1.1,98 1.5,98Z " /><path id="矩形复制 107" fill-rule="evenodd" style="fill:#32C5FF" transform="translate(613 634)  rotate(90 1.5 24)" opacity="1" d="M1.5,48L1.5,48C1.9,48 2.28,47.84 2.56,47.56C2.84,47.28 3,46.9 3,46.5L3,1.5C3,1.1 2.84,0.72 2.56,0.44C2.28,0.16 1.9,0 1.5,0L1.5,0C1.1,0 0.72,0.16 0.44,0.44C0.16,0.72 0,1.1 0,1.5L0,46.5C0,46.9 0.16,47.28 0.44,47.56C0.72,47.84 1.1,48 1.5,48Z " /><path id="矩形复制 135" fill-rule="evenodd" style="fill:#32C5FF" transform="translate(151 -22)  rotate(90 1.5 24)" opacity="1" d="M1.5,48L1.5,48C1.9,48 2.28,47.84 2.56,47.56C2.84,47.28 3,46.9 3,46.5L3,1.5C3,1.1 2.84,0.72 2.56,0.44C2.28,0.16 1.9,0 1.5,0L1.5,0C1.1,0 0.72,0.16 0.44,0.44C0.16,0.72 0,1.1 0,1.5L0,46.5C0,46.9 0.16,47.28 0.44,47.56C0.72,47.84 1.1,48 1.5,48Z " /></g></svg>