<svg xmlns="http://www.w3.org/2000/svg" xmlns:xlink="http://www.w3.org/1999/xlink" width="620" height="352"
  viewBox="0 0 620 352" fill="none">
  <defs>
    <linearGradient id="linear_0" x1="50%" y1="48.51140202702703%" x2="51%" y2="100%" gradientUnits="objectBoundingBox">
      <stop offset="0" stop-color="#32C5FF" stop-opacity="1" />
      <stop offset="0.4851140202702703" stop-color="#FFF9F9" stop-opacity="1" />
      <stop offset="1" stop-color="#32C5FF" stop-opacity="1" />
    </linearGradient>
    <filter id="filter_2" x="1" y="0" width="618" height="350" filterUnits="userSpaceOnUse"
      color-interpolation-filters="sRGB"></filter>
  </defs>
  <g opacity="1" transform="translate(0 1)  rotate(0 310 175)">
    <path id="矩形" fill-rule="evenodd" style="fill:#32C5FF" transform="translate(1 0)  rotate(0 309 175)" opacity="0.1"
      d="M20,350L598,350C609.05,350 618,341.05 618,330L618,20C618,8.95 609.05,0 598,0L20,0C8.95,0 0,8.95 0,20L0,330C0,341.05 8.95,350 20,350Z " />
    <rect id="矩形" style="stroke:url(#linear_0); stroke-width:1; stroke-opacity:100; stroke-dasharray:0 0"
      transform="translate(1 0)  rotate(0 309 175)" x="0.5" y="0.5" rx="19.5" width="617" height="349" />
    <rect id="矩形" style="stroke:#24205e; stroke-width:2; stroke-opacity:1; stroke-dasharray:0 0"
      transform="translate(1 0)  rotate(0 309 175)" x="1" y="1" rx="19" width="618" height="348" />
    <path id="矩形" fill-rule="evenodd" style="fill:#32C5FF" transform="translate(0 122)  rotate(0 1 29)" opacity="1"
      d="M1,58L1,58C1.27,58 1.52,57.89 1.71,57.71C1.89,57.52 2,57.27 2,57L2,1C2,0.73 1.89,0.48 1.71,0.29C1.52,0.11 1.27,0 1,0L1,0C0.73,0 0.48,0.11 0.29,0.29C0.11,0.48 0,0.73 0,1L0,57C0,57.27 0.11,57.52 0.29,57.71C0.48,57.89 0.73,58 1,58Z " />
    <path id="矩形复制 79" fill-rule="evenodd" style="fill:#32C5FF" transform="translate(618 81)  rotate(0 1 29)"
      opacity="1"
      d="M1,58L1,58C1.27,58 1.52,57.89 1.71,57.71C1.89,57.52 2,57.27 2,57L2,1C2,0.73 1.89,0.48 1.71,0.29C1.52,0.11 1.27,0 1,0L1,0C0.73,0 0.48,0.11 0.29,0.29C0.11,0.48 0,0.73 0,1L0,57C0,57.27 0.11,57.52 0.29,57.71C0.48,57.89 0.73,58 1,58Z " />
    <path id="矩形复制 138" fill-rule="evenodd" style="fill:#32C5FF" transform="translate(1 292)  rotate(0 1 12)"
      opacity="1"
      d="M1,24L1,24C1.27,24 1.52,23.89 1.71,23.71C1.89,23.52 2,23.27 2,23L2,1C2,0.73 1.89,0.48 1.71,0.29C1.52,0.11 1.27,0 1,0L1,0C0.73,0 0.48,0.11 0.29,0.29C0.11,0.48 0,0.73 0,1L0,23C0,23.27 0.11,23.52 0.29,23.71C0.48,23.89 0.73,24 1,24Z " />
    <path id="矩形复制 139" fill-rule="evenodd" style="fill:#32C5FF" transform="translate(618 236)  rotate(0 1 12)"
      opacity="1"
      d="M1,24L1,24C1.27,24 1.52,23.89 1.71,23.71C1.89,23.52 2,23.27 2,23L2,1C2,0.73 1.89,0.48 1.71,0.29C1.52,0.11 1.27,0 1,0L1,0C0.73,0 0.48,0.11 0.29,0.29C0.11,0.48 0,0.73 0,1L0,23C0,23.27 0.11,23.52 0.29,23.71C0.48,23.89 0.73,24 1,24Z " />
    <path id="矩形复制 80" fill-rule="evenodd" style="fill:#32C5FF" transform="translate(404 -37)  rotate(90 0.5 37.5)"
      opacity="1"
      d="M0.5,75L0.5,75C0.63,75 0.76,74.95 0.85,74.85C0.95,74.76 1,74.63 1,74.5L1,0.5C1,0.37 0.95,0.24 0.85,0.15C0.76,0.05 0.63,0 0.5,0L0.5,0C0.37,0 0.24,0.05 0.15,0.15C0.05,0.24 0,0.37 0,0.5L0,74.5C0,74.63 0.05,74.76 0.15,74.85C0.24,74.95 0.37,75 0.5,75Z " />
    <path id="矩形复制 106" fill-rule="evenodd" style="fill:#32C5FF" transform="translate(156 312)  rotate(90 0.5 37.5)"
      opacity="1"
      d="M0.5,75L0.5,75C0.63,75 0.76,74.95 0.85,74.85C0.95,74.76 1,74.63 1,74.5L1,0.5C1,0.37 0.95,0.24 0.85,0.15C0.76,0.05 0.63,0 0.5,0L0.5,0C0.37,0 0.24,0.05 0.15,0.15C0.05,0.24 0,0.37 0,0.5L0,74.5C0,74.63 0.05,74.76 0.15,74.85C0.24,74.95 0.37,75 0.5,75Z " />
    <path id="矩形复制 107" fill-rule="evenodd" style="fill:#32C5FF" transform="translate(475 331)  rotate(90 0.5 18.5)"
      opacity="1"
      d="M0.5,37L0.5,37C0.63,37 0.76,36.95 0.85,36.85C0.95,36.76 1,36.63 1,36.5L1,0.5C1,0.37 0.95,0.24 0.85,0.15C0.76,0.05 0.63,0 0.5,0L0.5,0C0.37,0 0.24,0.05 0.15,0.15C0.05,0.24 0,0.37 0,0.5L0,36.5C0,36.63 0.05,36.76 0.15,36.85C0.24,36.95 0.37,37 0.5,37Z " />
    <path id="矩形复制 135" fill-rule="evenodd" style="fill:#32C5FF" transform="translate(118 -18)  rotate(90 0.5 18.5)"
      opacity="1"
      d="M0.5,37L0.5,37C0.63,37 0.76,36.95 0.85,36.85C0.95,36.76 1,36.63 1,36.5L1,0.5C1,0.37 0.95,0.24 0.85,0.15C0.76,0.05 0.63,0 0.5,0L0.5,0C0.37,0 0.24,0.05 0.15,0.15C0.05,0.24 0,0.37 0,0.5L0,36.5C0,36.63 0.05,36.76 0.15,36.85C0.24,36.95 0.37,37 0.5,37Z " />
  </g>
</svg>