<svg xmlns="http://www.w3.org/2000/svg" xmlns:xlink="http://www.w3.org/1999/xlink" width="620" height="202" viewBox="0 0 620 202" fill="none"><defs><linearGradient id="linear_0" x1="50%" y1="48.51140202702703%" x2="51%" y2="100%" gradientUnits="objectBoundingBox"><stop offset="0" stop-color="#32C5FF" stop-opacity="1" /><stop offset="0.4851140202702703" stop-color="#24205e9F9" stop-opacity="1" /><stop offset="1" stop-color="#32C5FF" stop-opacity="1" /></linearGradient><filter id="filter_2" x="1" y="1" width="618" height="200" filterUnits="userSpaceOnUse" color-interpolation-filters="sRGB"></filter></defs><g opacity="1" transform="translate(0 0)  rotate(0 310 101)"><path id="矩形" fill-rule="evenodd" style="fill:#32C5FF" transform="translate(1 1)  rotate(0 309 100)" opacity="0.1" d="M20,200L598,200C609.05,200 618,191.05 618,180L618,20C618,8.95 609.05,0 598,0L20,0C8.95,0 0,8.95 0,20L0,180C0,191.05 8.95,200 20,200Z " /><rect id="矩形" style="stroke:url(#linear_0); stroke-width:1; stroke-opacity:100; stroke-dasharray:0 0" transform="translate(1 1)  rotate(0 309 100)" x="0.5" y="0.5" rx="19.5"  width="617" height="199" /><rect  id="矩形" style="stroke:#24205eFFF; stroke-width:2; stroke-opacity:1; stroke-dasharray:0 0" transform="translate(1 1)  rotate(0 309 100)" x="1" y="1" rx="19"  width="618" height="198" /><path id="矩形" fill-rule="evenodd" style="fill:#32C5FF" transform="translate(0 68.66169154228851)  rotate(0 1 15.920398009950246)" opacity="1" d="M1,31.84L1,31.84C1.27,31.84 1.52,31.73 1.71,31.55C1.89,31.36 2,31.11 2,30.84L2,1C2,0.73 1.89,0.48 1.71,0.29C1.52,0.11 1.27,0 1,0L1,0C0.73,0 0.48,0.11 0.29,0.29C0.11,0.48 0,0.73 0,1L0,30.84C0,31.11 0.11,31.36 0.29,31.55C0.48,31.73 0.73,31.84 1,31.84Z " /><path id="矩形复制 79" fill-rule="evenodd" style="fill:#32C5FF" transform="translate(618 45.77611940298505)  rotate(0 1 15.920398009950246)" opacity="1" d="M1,31.84L1,31.84C1.27,31.84 1.52,31.73 1.71,31.55C1.89,31.36 2,31.11 2,30.84L2,1C2,0.73 1.89,0.48 1.71,0.29C1.52,0.11 1.27,0 1,0L1,0C0.73,0 0.48,0.11 0.29,0.29C0.11,0.48 0,0.73 0,1L0,30.84C0,31.11 0.11,31.36 0.29,31.55C0.48,31.73 0.73,31.84 1,31.84Z " /><path id="矩形复制 138" fill-rule="evenodd" style="fill:#32C5FF" transform="translate(1 163.1890547263681)  rotate(0 1 6.46766169154229)" opacity="1" d="M1,12.94L1,12.94C1.27,12.94 1.52,12.83 1.71,12.65C1.89,12.46 2,12.21 2,11.94L2,1C2,0.73 1.89,0.48 1.71,0.29C1.52,0.11 1.27,0 1,0L1,0C0.73,0 0.48,0.11 0.29,0.29C0.11,0.48 0,0.73 0,1L0,11.94C0,12.21 0.11,12.46 0.29,12.65C0.48,12.83 0.73,12.94 1,12.94Z " /><path id="矩形复制 139" fill-rule="evenodd" style="fill:#32C5FF" transform="translate(618 131.3482587064677)  rotate(0 1 6.46766169154229)" opacity="1" d="M1,12.94L1,12.94C1.27,12.94 1.52,12.83 1.71,12.65C1.89,12.46 2,12.21 2,11.94L2,1C2,0.73 1.89,0.48 1.71,0.29C1.52,0.11 1.27,0 1,0L1,0C0.73,0 0.48,0.11 0.29,0.29C0.11,0.48 0,0.73 0,1L0,11.94C0,12.21 0.11,12.46 0.29,12.65C0.48,12.83 0.73,12.94 1,12.94Z " /><path id="矩形复制 80" fill-rule="evenodd" style="fill:#32C5FF" transform="translate(404 -36.00248756218906)  rotate(90 0.5 37.5)" opacity="1" d="M0.5,75L0.5,75C0.57,75 0.65,74.97 0.7,74.92C0.75,74.87 0.78,74.79 0.78,74.72L0.78,0.28C0.78,0.21 0.75,0.13 0.7,0.08C0.65,0.03 0.57,0 0.5,0L0.5,0C0.43,0 0.35,0.03 0.3,0.08C0.25,0.13 0.22,0.21 0.22,0.28L0.22,74.72C0.22,74.79 0.25,74.87 0.3,74.92C0.35,74.97 0.43,75 0.5,75Z " /><path id="矩形复制 106" fill-rule="evenodd" style="fill:#32C5FF" transform="translate(156 163.0024875621891)  rotate(90 0.5 37.5)" opacity="1" d="M0.5,75L0.5,75C0.57,75 0.65,74.97 0.7,74.92C0.75,74.87 0.78,74.79 0.78,74.72L0.78,0.28C0.78,0.21 0.75,0.13 0.7,0.08C0.65,0.03 0.57,0 0.5,0L0.5,0C0.43,0 0.35,0.03 0.3,0.08C0.25,0.13 0.22,0.21 0.22,0.28L0.22,74.72C0.22,74.79 0.25,74.87 0.3,74.92C0.35,74.97 0.43,75 0.5,75Z " /><path id="矩形复制 107" fill-rule="evenodd" style="fill:#32C5FF" transform="translate(475 182.0024875621891)  rotate(90 0.5 18.5)" opacity="1" d="M0.5,37L0.5,37C0.57,37 0.65,36.97 0.7,36.92C0.75,36.87 0.78,36.79 0.78,36.72L0.78,0.28C0.78,0.21 0.75,0.13 0.7,0.08C0.65,0.03 0.57,0 0.5,0L0.5,0C0.43,0 0.35,0.03 0.3,0.08C0.25,0.13 0.22,0.21 0.22,0.28L0.22,36.72C0.22,36.79 0.25,36.87 0.3,36.92C0.35,36.97 0.43,37 0.5,37Z " /><path id="矩形复制 135" fill-rule="evenodd" style="fill:#32C5FF" transform="translate(118 -17.00248756218906)  rotate(90 0.5 18.5)" opacity="1" d="M0.5,37L0.5,37C0.57,37 0.65,36.97 0.7,36.92C0.75,36.87 0.78,36.79 0.78,36.72L0.78,0.28C0.78,0.21 0.75,0.13 0.7,0.08C0.65,0.03 0.57,0 0.5,0L0.5,0C0.43,0 0.35,0.03 0.3,0.08C0.25,0.13 0.22,0.21 0.22,0.28L0.22,36.72C0.22,36.79 0.25,36.87 0.3,36.92C0.35,36.97 0.43,37 0.5,37Z " /></g></svg>