<svg xmlns="http://www.w3.org/2000/svg" xmlns:xlink="http://www.w3.org/1999/xlink" width="620" height="141" viewBox="0 0 620 141" fill="none"><defs><linearGradient id="linear_0" x1="50%" y1="48.51140202702703%" x2="51%" y2="100%" gradientUnits="objectBoundingBox"><stop offset="0" stop-color="#32C5FF" stop-opacity="1" /><stop offset="0.4851140202702703" stop-color="#24205e9F9" stop-opacity="1" /><stop offset="1" stop-color="#32C5FF" stop-opacity="1" /></linearGradient><filter id="filter_2" x="1" y="0.9929078014184397" width="618" height="138.0141843971631" filterUnits="userSpaceOnUse" color-interpolation-filters="sRGB"></filter></defs><g opacity="1" transform="translate(0 0.0070953369140625)  rotate(0 310 70)"><path id="矩形" fill-rule="evenodd" style="fill:#32C5FF" transform="translate(1 0.9929078014184397)  rotate(0 309 69.00709219858155)" opacity="0.1" d="M20,138.01L598,138.01C609.05,138.01 618,129.06 618,118.01L618,20C618,8.95 609.05,0 598,0L20,0C8.95,0 0,8.95 0,20L0,118.01C0,129.06 8.95,138.01 20,138.01Z " /><rect id="矩形" style="stroke:url(#linear_0); stroke-width:1; stroke-opacity:100; stroke-dasharray:0 0" transform="translate(1 0.9929078014184397)  rotate(0 309 69.00709219858155)" x="0.5" y="0.5" rx="19.5"  width="617" height="137.0141843971631" /><rect  id="矩形" style="stroke:#24205eFFF; stroke-width:2; stroke-opacity:1; stroke-dasharray:0 0" transform="translate(1 0.9929078014184397)  rotate(0 309 69.00709219858155)" x="1" y="1" rx="19"  width="618" height="136.0141843971631" /><path id="矩形" fill-rule="evenodd" style="fill:#32C5FF" transform="translate(0 46.66666666666666)  rotate(0 1 11.418439716312054)" opacity="1" d="M1,22.84L1,22.84C1.27,22.84 1.52,22.73 1.71,22.55C1.89,22.36 2,22.11 2,21.84L2,1C2,0.73 1.89,0.48 1.71,0.29C1.52,0.11 1.27,0 1,0L1,0C0.73,0 0.48,0.11 0.29,0.29C0.11,0.48 0,0.73 0,1L0,21.84C0,22.11 0.11,22.36 0.29,22.55C0.48,22.73 0.73,22.84 1,22.84Z " /><path id="矩形复制 79" fill-rule="evenodd" style="fill:#32C5FF" transform="translate(618 30.78014184397163)  rotate(0 1 11.418439716312054)" opacity="1" d="M1,22.84L1,22.84C1.27,22.84 1.52,22.73 1.71,22.55C1.89,22.36 2,22.11 2,21.84L2,1C2,0.73 1.89,0.48 1.71,0.29C1.52,0.11 1.27,0 1,0L1,0C0.73,0 0.48,0.11 0.29,0.29C0.11,0.48 0,0.73 0,1L0,21.84C0,22.11 0.11,22.36 0.29,22.55C0.48,22.73 0.73,22.84 1,22.84Z " /><path id="矩形复制 138" fill-rule="evenodd" style="fill:#32C5FF" transform="translate(1 113.1914893617021)  rotate(0 1 4.468085106382979)" opacity="1" d="M1,8.94L1,8.94C1.55,8.94 2,8.49 2,7.94L2,1C2,0.73 1.89,0.48 1.71,0.29C1.52,0.11 1.27,0 1,0L1,0C0.73,0 0.48,0.11 0.29,0.29C0.11,0.48 0,0.73 0,1L0,7.94C0,8.49 0.45,8.94 1,8.94Z " /><path id="矩形复制 139" fill-rule="evenodd" style="fill:#32C5FF" transform="translate(618 91.34751773049645)  rotate(0 1 4.468085106382979)" opacity="1" d="M1,8.94L1,8.94C1.55,8.94 2,8.49 2,7.94L2,1C2,0.73 1.89,0.48 1.71,0.29C1.52,0.11 1.27,0 1,0L1,0C0.73,0 0.48,0.11 0.29,0.29C0.11,0.48 0,0.73 0,1L0,7.94C0,8.49 0.45,8.94 1,8.94Z " /><path id="矩形复制 80" fill-rule="evenodd" style="fill:#32C5FF" transform="translate(404 -37.00354609929079)  rotate(90 0.5 37.5)" opacity="1" d="M0.5,75L0.5,75C0.69,75 0.85,74.84 0.85,74.65L0.85,0.35C0.85,0.16 0.69,0 0.5,0L0.5,0C0.31,0 0.15,0.16 0.15,0.35L0.15,74.65C0.15,74.84 0.31,75 0.5,75Z " /><path id="矩形复制 106" fill-rule="evenodd" style="fill:#32C5FF" transform="translate(156 102.0035460992908)  rotate(90 0.5 37.5)" opacity="1" d="M0.5,75L0.5,75C0.69,75 0.85,74.84 0.85,74.65L0.85,0.35C0.85,0.16 0.69,0 0.5,0L0.5,0C0.31,0 0.15,0.16 0.15,0.35L0.15,74.65C0.15,74.84 0.31,75 0.5,75Z " /><path id="矩形复制 107" fill-rule="evenodd" style="fill:#32C5FF" transform="translate(475 121.0035460992908)  rotate(90 0.5 18.5)" opacity="1" d="M0.5,37L0.5,37C0.69,37 0.85,36.84 0.85,36.65L0.85,0.35C0.85,0.16 0.69,0 0.5,0L0.5,0C0.31,0 0.15,0.16 0.15,0.35L0.15,36.65C0.15,36.84 0.31,37 0.5,37Z " /><path id="矩形复制 135" fill-rule="evenodd" style="fill:#32C5FF" transform="translate(118 -18.00354609929078)  rotate(90 0.5 18.5)" opacity="1" d="M0.5,37L0.5,37C0.69,37 0.85,36.84 0.85,36.65L0.85,0.35C0.85,0.16 0.69,0 0.5,0L0.5,0C0.31,0 0.15,0.16 0.15,0.35L0.15,36.65C0.15,36.84 0.31,37 0.5,37Z " /></g></svg>