<svg xmlns="http://www.w3.org/2000/svg" xmlns:xlink="http://www.w3.org/1999/xlink" width="803" height="392" viewBox="0 0 803 392" fill="none"><defs><linearGradient id="linear_0" x1="50%" y1="48.51140202702703%" x2="51%" y2="100%" gradientUnits="objectBoundingBox"><stop offset="0" stop-color="#32C5FF" stop-opacity="1" /><stop offset="0.4851140202702703" stop-color="#24205e9F9" stop-opacity="1" /><stop offset="1" stop-color="#32C5FF" stop-opacity="1" /></linearGradient><filter id="filter_2" x="2" y="0.9923664122137404" width="800" height="389.0076335877862" filterUnits="userSpaceOnUse" color-interpolation-filters="sRGB"></filter></defs><g opacity="1" transform="translate(0 0.00762939453125)  rotate(0 401.5 195)"><path id="矩形" fill-rule="evenodd" style="fill:#32C5FF" transform="translate(2 0.9923664122137404)  rotate(0 400 194.5038167938931)" opacity="0.1" d="M20,389.01L780,389.01C791.05,389.01 800,380.06 800,369.01L800,20C800,8.95 791.05,0 780,0L20,0C8.95,0 0,8.95 0,20L0,369.01C0,380.06 8.95,389.01 20,389.01Z " /><rect id="矩形" style="stroke:url(#linear_0); stroke-width:1; stroke-opacity:100; stroke-dasharray:0 0" transform="translate(2 0.9923664122137404)  rotate(0 400 194.5038167938931)" x="0.5" y="0.5" rx="19.5"  width="799" height="388.0076335877862" /><rect  id="矩形" style="stroke:#24205eFFF; stroke-width:2; stroke-opacity:1; stroke-dasharray:0 0" transform="translate(2 0.9923664122137404)  rotate(0 400 194.5038167938931)" x="1" y="1" rx="19"  width="800" height="387.0076335877862" /><path id="矩形" fill-rule="evenodd" style="fill:#32C5FF" transform="translate(0 130.9923664122137)  rotate(0 1.5 31.7557251908397)" opacity="1" d="M1.5,63.51L1.5,63.51C1.9,63.51 2.28,63.35 2.56,63.07C2.84,62.79 3,62.41 3,62.01L3,1.5C3,1.1 2.84,0.72 2.56,0.44C2.28,0.16 1.9,0 1.5,0L1.5,0C1.1,0 0.72,0.16 0.44,0.44C0.16,0.72 0,1.1 0,1.5L0,62.01C0,62.41 0.16,62.79 0.44,63.07C0.72,63.35 1.1,63.51 1.5,63.51Z " /><path id="矩形复制 79" fill-rule="evenodd" style="fill:#32C5FF" transform="translate(800 85.34351145038167)  rotate(0 1.5 31.7557251908397)" opacity="1" d="M1.5,63.51L1.5,63.51C1.9,63.51 2.28,63.35 2.56,63.07C2.84,62.79 3,62.41 3,62.01L3,1.5C3,1.1 2.84,0.72 2.56,0.44C2.28,0.16 1.9,0 1.5,0L1.5,0C1.1,0 0.72,0.16 0.44,0.44C0.16,0.72 0,1.1 0,1.5L0,62.01C0,62.41 0.16,62.79 0.44,63.07C0.72,63.35 1.1,63.51 1.5,63.51Z " /><path id="矩形复制 138" fill-rule="evenodd" style="fill:#32C5FF" transform="translate(1 316.5648854961833)  rotate(0 1.5 12.404580152671715)" opacity="1" d="M1.5,24.81L1.5,24.81C1.9,24.81 2.28,24.65 2.56,24.37C2.84,24.09 3,23.71 3,23.31L3,1.5C3,1.1 2.84,0.72 2.56,0.44C2.28,0.16 1.9,0 1.5,0L1.5,0C1.1,0 0.72,0.16 0.44,0.44C0.16,0.72 0,1.1 0,1.5L0,23.31C0,23.71 0.16,24.09 0.44,24.37C0.72,24.65 1.1,24.81 1.5,24.81Z " /><path id="矩形复制 139" fill-rule="evenodd" style="fill:#32C5FF" transform="translate(800 254.0458015267176)  rotate(0 1.5 12.404580152671755)" opacity="1" d="M1.5,24.81L1.5,24.81C1.9,24.81 2.28,24.65 2.56,24.37C2.84,24.09 3,23.71 3,23.31L3,1.5C3,1.1 2.84,0.72 2.56,0.44C2.28,0.16 1.9,0 1.5,0L1.5,0C1.1,0 0.72,0.16 0.44,0.44C0.16,0.72 0,1.1 0,1.5L0,23.31C0,23.71 0.16,24.09 0.44,24.37C0.72,24.65 1.1,24.81 1.5,24.81Z " /><path id="矩形复制 80" fill-rule="evenodd" style="fill:#32C5FF" transform="translate(522.0076335877865 -48.00763358778644)  rotate(90 0.9923664122135725 49)" opacity="1" d="M0.99,98L0.99,98C1.54,98 1.98,97.56 1.98,97.01L1.98,0.99C1.98,0.44 1.54,0 0.99,0L0.99,0C0.44,0 0,0.44 0,0.99L0,97.01C0,97.56 0.44,98 0.99,98Z " /><path id="矩形复制 106" fill-rule="evenodd" style="fill:#32C5FF" transform="translate(201.0076335877862 340.0076335877863)  rotate(90 0.9923664122137555 49)" opacity="1" d="M0.99,98L0.99,98C1.54,98 1.98,97.56 1.98,97.01L1.98,0.99C1.98,0.44 1.54,0 0.99,0L0.99,0C0.44,0 0,0.44 0,0.99L0,97.01C0,97.56 0.44,98 0.99,98Z " /><path id="矩形复制 107" fill-rule="evenodd" style="fill:#32C5FF" transform="translate(614.0076335877862 365.0076335877863)  rotate(90 0.9923664122137555 24)" opacity="1" d="M0.99,48L0.99,48C1.54,48 1.98,47.56 1.98,47.01L1.98,0.99C1.98,0.44 1.54,0 0.99,0L0.99,0C0.44,0 0,0.44 0,0.99L0,47.01C0,47.56 0.44,48 0.99,48Z " /><path id="矩形复制 135" fill-rule="evenodd" style="fill:#32C5FF" transform="translate(152.0076335877863 -23.00763358778626)  rotate(90 0.9923664122137404 24)" opacity="1" d="M0.99,48L0.99,48C1.54,48 1.98,47.56 1.98,47.01L1.98,0.99C1.98,0.44 1.54,0 0.99,0L0.99,0C0.44,0 0,0.44 0,0.99L0,47.01C0,47.56 0.44,48 0.99,48Z " /></g></svg>