<svg xmlns="http://www.w3.org/2000/svg" xmlns:xlink="http://www.w3.org/1999/xlink" width="620" height="242" viewBox="0 0 620 242" fill="none"><defs><linearGradient id="linear_0" x1="50%" y1="48.51140202702703%" x2="51%" y2="100%" gradientUnits="objectBoundingBox"><stop offset="0" stop-color="#32C5FF" stop-opacity="1" /><stop offset="0.4851140202702703" stop-color="#24205e9F9" stop-opacity="1" /><stop offset="1" stop-color="#32C5FF" stop-opacity="1" /></linearGradient><filter id="filter_2" x="1" y="0" width="618" height="240" filterUnits="userSpaceOnUse" color-interpolation-filters="sRGB"></filter></defs><g opacity="1" transform="translate(0 1)  rotate(0 310 120)"><path id="矩形" fill-rule="evenodd" style="fill:#32C5FF" transform="translate(1 0)  rotate(0 309 120)" opacity="0.1" d="M20,240L598,240C609.05,240 618,231.05 618,220L618,20C618,8.95 609.05,0 598,0L20,0C8.95,0 0,8.95 0,20L0,220C0,231.05 8.95,240 20,240Z " /><rect id="矩形" style="stroke:url(#linear_0); stroke-width:1; stroke-opacity:100; stroke-dasharray:0 0" transform="translate(1 0)  rotate(0 309 120)" x="0.5" y="0.5" rx="19.5"  width="617" height="239" /><rect  id="矩形" style="stroke:#24205eFFF; stroke-width:2; stroke-opacity:1; stroke-dasharray:0 0" transform="translate(1 0)  rotate(0 309 120)" x="1" y="1" rx="19"  width="618" height="238" /><path id="矩形" fill-rule="evenodd" style="fill:#32C5FF" transform="translate(0 83.07692307692304)  rotate(0 1 20.000000000000004)" opacity="1" d="M1,40L1,40C1.27,40 1.52,39.89 1.71,39.71C1.89,39.52 2,39.27 2,39L2,1C2,0.73 1.89,0.48 1.71,0.29C1.52,0.11 1.27,0 1,0L1,0C0.73,0 0.48,0.11 0.29,0.29C0.11,0.48 0,0.73 0,1L0,39C0,39.27 0.11,39.52 0.29,39.71C0.48,39.89 0.73,40 1,40Z " /><path id="矩形复制 79" fill-rule="evenodd" style="fill:#32C5FF" transform="translate(618 55.38461538461537)  rotate(0 1 20.000000000000004)" opacity="1" d="M1,40L1,40C1.27,40 1.52,39.89 1.71,39.71C1.89,39.52 2,39.27 2,39L2,1C2,0.73 1.89,0.48 1.71,0.29C1.52,0.11 1.27,0 1,0L1,0C0.73,0 0.48,0.11 0.29,0.29C0.11,0.48 0,0.73 0,1L0,39C0,39.27 0.11,39.52 0.29,39.71C0.48,39.89 0.73,40 1,40Z " /><path id="矩形复制 138" fill-rule="evenodd" style="fill:#32C5FF" transform="translate(1 200)  rotate(0 1 8.205128205128204)" opacity="1" d="M1,16.41L1,16.41C1.27,16.41 1.52,16.3 1.71,16.12C1.89,15.93 2,15.68 2,15.41L2,1C2,0.73 1.89,0.48 1.71,0.29C1.52,0.11 1.27,0 1,0L1,0C0.73,0 0.48,0.11 0.29,0.29C0.11,0.48 0,0.73 0,1L0,15.41C0,15.68 0.11,15.93 0.29,16.12C0.48,16.3 0.73,16.41 1,16.41Z " /><path id="矩形复制 139" fill-rule="evenodd" style="fill:#32C5FF" transform="translate(618 162.051282051282)  rotate(0 1 8.205128205128204)" opacity="1" d="M1,16.41L1,16.41C1.27,16.41 1.52,16.3 1.71,16.12C1.89,15.93 2,15.68 2,15.41L2,1C2,0.73 1.89,0.48 1.71,0.29C1.52,0.11 1.27,0 1,0L1,0C0.73,0 0.48,0.11 0.29,0.29C0.11,0.48 0,0.73 0,1L0,15.41C0,15.68 0.11,15.93 0.29,16.12C0.48,16.3 0.73,16.41 1,16.41Z " /><path id="矩形复制 80" fill-rule="evenodd" style="fill:#32C5FF" transform="translate(404 -36.98717948717939)  rotate(90 0.5 37.5)" opacity="1" d="M0.5,75L0.5,75C0.69,75 0.84,74.85 0.84,74.66L0.84,0.34C0.84,0.15 0.69,0 0.5,0L0.5,0C0.31,0 0.16,0.15 0.16,0.34L0.16,74.66C0.16,74.85 0.31,75 0.5,75Z " /><path id="矩形复制 106" fill-rule="evenodd" style="fill:#32C5FF" transform="translate(156.0000000000002 201.9871794871794)  rotate(90 0.5 37.5)" opacity="1" d="M0.5,75L0.5,75C0.69,75 0.84,74.85 0.84,74.66L0.84,0.34C0.84,0.15 0.69,0 0.5,0L0.5,0C0.31,0 0.16,0.15 0.16,0.34L0.16,74.66C0.16,74.85 0.31,75 0.5,75Z " /><path id="矩形复制 107" fill-rule="evenodd" style="fill:#32C5FF" transform="translate(475 220.9871794871798)  rotate(90 0.5 18.5)" opacity="1" d="M0.5,37L0.5,37C0.69,37 0.84,36.85 0.84,36.66L0.84,0.34C0.84,0.15 0.69,0 0.5,0L0.5,0C0.31,0 0.16,0.15 0.16,0.34L0.16,36.66C0.16,36.85 0.31,37 0.5,37Z " /><path id="矩形复制 135" fill-rule="evenodd" style="fill:#32C5FF" transform="translate(118 -17.98717948717948)  rotate(90 0.5 18.5)" opacity="1" d="M0.5,37L0.5,37C0.69,37 0.84,36.85 0.84,36.66L0.84,0.34C0.84,0.15 0.69,0 0.5,0L0.5,0C0.31,0 0.16,0.15 0.16,0.34L0.16,36.66C0.16,36.85 0.31,37 0.5,37Z " /></g></svg>