<svg xmlns="http://www.w3.org/2000/svg" xmlns:xlink="http://www.w3.org/1999/xlink" width="620" height="283" viewBox="0 0 620 283" fill="none"><defs><linearGradient id="linear_0" x1="50%" y1="48.51140202702703%" x2="51%" y2="100%" gradientUnits="objectBoundingBox"><stop offset="0" stop-color="#32C5FF" stop-opacity="1" /><stop offset="0.4851140202702703" stop-color="#24205e9F9" stop-opacity="1" /><stop offset="1" stop-color="#32C5FF" stop-opacity="1" /></linearGradient><filter id="filter_2" x="1" y="0.9964664310954063" width="618" height="280.0070671378091" filterUnits="userSpaceOnUse" color-interpolation-filters="sRGB"></filter></defs><g opacity="1" transform="translate(0 0.00353240966796875)  rotate(0 310 141)"><path id="矩形" fill-rule="evenodd" style="fill:#32C5FF" transform="translate(1 0.9964664310954063)  rotate(0 309 140.00353356890454)" opacity="0.1" d="M20,280.01L598,280.01C609.05,280.01 618,271.06 618,260.01L618,20C618,8.95 609.05,0 598,0L20,0C8.95,0 0,8.95 0,20L0,260.01C0,271.06 8.95,280.01 20,280.01Z " /><rect id="矩形" style="stroke:url(#linear_0); stroke-width:1; stroke-opacity:100; stroke-dasharray:0 0" transform="translate(1 0.9964664310954063)  rotate(0 309 140.00353356890454)" x="0.5" y="0.5" rx="19.5"  width="617" height="279.0070671378091" /><rect  id="矩形" style="stroke:#24205eFFF; stroke-width:2; stroke-opacity:1; stroke-dasharray:0 0" transform="translate(1 0.9964664310954063)  rotate(0 309 140.00353356890454)" x="1" y="1" rx="19"  width="618" height="278.0070671378091" /><path id="矩形" fill-rule="evenodd" style="fill:#32C5FF" transform="translate(0 98.59892983341759)  rotate(0 1 23.20058556284703)" opacity="1" d="M1,46.4L1,46.4C1.27,46.4 1.52,46.29 1.71,46.11C1.89,45.92 2,45.67 2,45.4L2,1C2,0.73 1.89,0.48 1.71,0.29C1.52,0.11 1.27,0 1,0L1,0C0.73,0 0.48,0.11 0.29,0.29C0.11,0.48 0,0.73 0,1L0,45.4C0,45.67 0.11,45.92 0.29,46.11C0.48,46.29 0.73,46.4 1,46.4Z " /><path id="矩形复制 79" fill-rule="evenodd" style="fill:#32C5FF" transform="translate(618 65.79810196870264)  rotate(0 1 23.200585562846996)" opacity="1" d="M1,46.4L1,46.4C1.27,46.4 1.52,46.29 1.71,46.11C1.89,45.92 2,45.67 2,45.4L2,1C2,0.73 1.89,0.48 1.71,0.29C1.52,0.11 1.27,0 1,0L1,0C0.73,0 0.48,0.11 0.29,0.29C0.11,0.48 0,0.73 0,1L0,45.4C0,45.67 0.11,45.92 0.29,46.11C0.48,46.29 0.73,46.4 1,46.4Z " /><path id="矩形复制 138" fill-rule="evenodd" style="fill:#32C5FF" transform="translate(1 234.6023624432108)  rotate(0 1 9.600242301867725)" opacity="1" d="M1,19.2L1,19.2C1.27,19.2 1.52,19.09 1.71,18.91C1.89,18.72 2,18.47 2,18.2L2,1C2,0.73 1.89,0.48 1.71,0.29C1.52,0.11 1.27,0 1,0L1,0C0.73,0 0.48,0.11 0.29,0.29C0.11,0.48 0,0.73 0,1L0,18.2C0,18.47 0.11,18.72 0.29,18.91C0.48,19.09 0.73,19.2 1,19.2Z " /><path id="矩形复制 139" fill-rule="evenodd" style="fill:#32C5FF" transform="translate(618 189.8012317011612)  rotate(0 1 9.60024230186774)" opacity="1" d="M1,19.2L1,19.2C1.27,19.2 1.52,19.09 1.71,18.91C1.89,18.72 2,18.47 2,18.2L2,1C2,0.73 1.89,0.48 1.71,0.29C1.52,0.11 1.27,0 1,0L1,0C0.73,0 0.48,0.11 0.29,0.29C0.11,0.48 0,0.73 0,1L0,18.2C0,18.47 0.11,18.72 0.29,18.91C0.48,19.09 0.73,19.2 1,19.2Z " /><path id="矩形复制 80" fill-rule="evenodd" style="fill:#32C5FF" transform="translate(404 -36.10352347299452)  rotate(90 0.5 37.5)" opacity="1" d="M0.5,75L0.5,75C0.61,75 0.71,74.96 0.78,74.88C0.86,74.81 0.9,74.71 0.9,74.6L0.9,0.4C0.9,0.29 0.86,0.19 0.78,0.12C0.71,0.04 0.61,0 0.5,0L0.5,0C0.39,0 0.29,0.04 0.22,0.12C0.14,0.19 0.1,0.29 0.1,0.4L0.1,74.6C0.1,74.71 0.14,74.81 0.22,74.88C0.29,74.96 0.39,75 0.5,75Z " /><path id="矩形复制 106" fill-rule="evenodd" style="fill:#32C5FF" transform="translate(156 243.1035234729908)  rotate(90 0.5 37.5)" opacity="1" d="M0.5,75L0.5,75C0.61,75 0.71,74.96 0.78,74.88C0.86,74.81 0.9,74.71 0.9,74.6L0.9,0.4C0.9,0.29 0.86,0.19 0.78,0.12C0.71,0.04 0.61,0 0.5,0L0.5,0C0.39,0 0.29,0.04 0.22,0.12C0.14,0.19 0.1,0.29 0.1,0.4L0.1,74.6C0.1,74.71 0.14,74.81 0.22,74.88C0.29,74.96 0.39,75 0.5,75Z " /><path id="矩形复制 107" fill-rule="evenodd" style="fill:#32C5FF" transform="translate(475 262.1035234729953)  rotate(90 0.5 18.5)" opacity="1" d="M0.5,37L0.5,37C0.72,37 0.9,36.82 0.9,36.6L0.9,0.4C0.9,0.29 0.86,0.19 0.78,0.12C0.71,0.04 0.61,0 0.5,0L0.5,0C0.39,0 0.29,0.04 0.22,0.12C0.14,0.19 0.1,0.29 0.1,0.4L0.1,36.6C0.1,36.82 0.28,37 0.5,37Z " /><path id="矩形复制 135" fill-rule="evenodd" style="fill:#32C5FF" transform="translate(118 -17.10352347299385)  rotate(90 0.5 18.5)" opacity="1" d="M0.5,37L0.5,37C0.72,37 0.9,36.82 0.9,36.6L0.9,0.4C0.9,0.29 0.86,0.19 0.78,0.12C0.71,0.04 0.61,0 0.5,0L0.5,0C0.39,0 0.29,0.04 0.22,0.12C0.14,0.19 0.1,0.29 0.1,0.4L0.1,36.6C0.1,36.82 0.28,37 0.5,37Z " /></g></svg>