<svg xmlns="http://www.w3.org/2000/svg" xmlns:xlink="http://www.w3.org/1999/xlink" width="381" height="361" viewBox="0 0 381 361" fill="none"><defs><linearGradient id="linear_0" x1="50%" y1="48.51140202702703%" x2="51%" y2="100%" gradientUnits="objectBoundingBox"><stop offset="0" stop-color="#32C5FF" stop-opacity="1" /><stop offset="0.4851140202702703" stop-color="#24205e9F9" stop-opacity="1" /><stop offset="1" stop-color="#32C5FF" stop-opacity="1" /></linearGradient><filter id="filter_2" x="0" y="0" width="378.9973614775726" height="358.9972144846797" filterUnits="userSpaceOnUse" color-interpolation-filters="sRGB"></filter></defs><g opacity="1" transform="translate(1 1)  rotate(0 190 180)"><path id="矩形" fill-rule="evenodd" style="fill:#32C5FF" transform="translate(0 0)  rotate(0 189.4986807387863 179.49860724233986)" opacity="0.1" d="M20,359L359,359C370.05,359 379,350.05 379,339L379,20C379,8.95 370.05,0 359,0L20,0C8.95,0 0,8.95 0,20L0,339C0,350.05 8.95,359 20,359Z " /><rect id="矩形" style="stroke:url(#linear_0); stroke-width:1; stroke-opacity:100; stroke-dasharray:0 0" transform="translate(0 0)  rotate(0 189.4986807387863 179.49860724233986)" x="0.5" y="0.5" rx="19.5"  width="377.9973614775726" height="357.9972144846797" /><rect  id="矩形" style="stroke:#24205eFFF; stroke-width:2; stroke-opacity:1; stroke-dasharray:0 0" transform="translate(0 0)  rotate(0 189.4986807387863 179.49860724233986)" x="1" y="1" rx="19"  width="378.9973614775726" height="356.9972144846797" /><path id="矩形" fill-rule="evenodd" style="fill:#32C5FF" transform="translate(0 121.3370473537604)  rotate(0 0.5013192612137205 28.579387186629525)" opacity="1" d="M0.5,57.16L0.5,57.16C0.78,57.16 1,56.94 1,56.66L1,0.5C1,0.22 0.78,0 0.5,0L0.5,0C0.22,0 0,0.22 0,0.5L0,56.66C0,56.94 0.22,57.16 0.5,57.16Z " /><path id="矩形复制 79" fill-rule="evenodd" style="fill:#32C5FF" transform="translate(378.9973614775726 80.22284122562674)  rotate(0 0.501319261213723 28.579387186629525)" opacity="1" d="M0.5,57.16L0.5,57.16C0.78,57.16 1,56.94 1,56.66L1,0.5C1,0.22 0.78,0 0.5,0L0.5,0C0.22,0 0,0.22 0,0.5L0,56.66C0,56.94 0.22,57.16 0.5,57.16Z " /><path id="矩形复制 138" fill-rule="evenodd" style="fill:#32C5FF" transform="translate(1.002638522427441 291.8105849582172)  rotate(0 0.5013192612137205 11.53203342618386)" opacity="1" d="M0.5,23.06L0.5,23.06C0.78,23.06 1,22.84 1,22.56L1,0.5C1,0.22 0.78,0 0.5,0L0.5,0C0.22,0 0,0.22 0,0.5L0,22.56C0,22.84 0.22,23.06 0.5,23.06Z " /><path id="矩形复制 139" fill-rule="evenodd" style="fill:#32C5FF" transform="translate(378.9973614775726 233.6490250696379)  rotate(0 0.501319261213723 11.532033426183846)" opacity="1" d="M0.5,23.06L0.5,23.06C0.78,23.06 1,22.84 1,22.56L1,0.5C1,0.22 0.78,0 0.5,0L0.5,0C0.22,0 0,0.22 0,0.5L0,22.56C0,22.84 0.22,23.06 0.5,23.06Z " /><path id="矩形复制 80" fill-rule="evenodd" style="fill:#32C5FF" transform="translate(247.6530343007915 -22.05797399695726)  rotate(90 0.5 22.55936675461743)" opacity="1" d="M0.5,45.12L0.5,45.12C0.63,45.12 0.76,45.07 0.85,44.97C0.95,44.88 1,44.75 1,44.62L1,0.5C1,0.37 0.95,0.24 0.85,0.15C0.76,0.05 0.63,0 0.5,0L0.5,0C0.37,0 0.24,0.05 0.15,0.15C0.05,0.24 0,0.37 0,0.5L0,44.62C0,44.75 0.05,44.88 0.15,44.97C0.24,45.07 0.37,45.12 0.5,45.12Z " /><path id="矩形复制 106" fill-rule="evenodd" style="fill:#32C5FF" transform="translate(95.25197889182064 335.9364549724021)  rotate(90 0.5 22.55936675461741)" opacity="1" d="M0.5,45.12L0.5,45.12C0.63,45.12 0.76,45.07 0.85,44.97C0.95,44.88 1,44.75 1,44.62L1,0.5C1,0.37 0.95,0.24 0.85,0.15C0.76,0.05 0.63,0 0.5,0L0.5,0C0.37,0 0.24,0.05 0.15,0.15C0.05,0.24 0,0.37 0,0.5L0,44.62C0,44.75 0.05,44.88 0.15,44.97C0.24,45.07 0.37,45.12 0.5,45.12Z " /><path id="矩形复制 107" fill-rule="evenodd" style="fill:#32C5FF" transform="translate(290.7664907651715 347.9681907379779)  rotate(90 0.5 11.029023746701824)" opacity="1" d="M0.5,22.06L0.5,22.06C0.63,22.06 0.76,22.01 0.85,21.91C0.95,21.82 1,21.69 1,21.56L1,0.5C1,0.37 0.95,0.24 0.85,0.15C0.76,0.05 0.63,0 0.5,0L0.5,0C0.37,0 0.24,0.05 0.15,0.15C0.05,0.24 0,0.37 0,0.5L0,21.56C0,21.69 0.05,21.82 0.15,21.91C0.24,22.01 0.37,22.06 0.5,22.06Z " /><path id="矩形复制 135" fill-rule="evenodd" style="fill:#32C5FF" transform="translate(72.19129287598943 -10.02623823138151)  rotate(90 0.5 11.029023746701846)" opacity="1" d="M0.5,22.06L0.5,22.06C0.63,22.06 0.76,22.01 0.85,21.91C0.95,21.82 1,21.69 1,21.56L1,0.5C1,0.37 0.95,0.24 0.85,0.15C0.76,0.05 0.63,0 0.5,0L0.5,0C0.37,0 0.24,0.05 0.15,0.15C0.05,0.24 0,0.37 0,0.5L0,21.56C0,21.69 0.05,21.82 0.15,21.91C0.24,22.01 0.37,22.06 0.5,22.06Z " /></g></svg>