<svg xmlns="http://www.w3.org/2000/svg" xmlns:xlink="http://www.w3.org/1999/xlink" width="222" height="361" viewBox="0 0 222 361" fill="none"><defs><linearGradient id="linear_0" x1="50%" y1="48.51140202702703%" x2="51%" y2="100%" gradientUnits="objectBoundingBox"><stop offset="0" stop-color="#32C5FF" stop-opacity="1" /><stop offset="0.4851140202702703" stop-color="#24205e9F9" stop-opacity="1" /><stop offset="1" stop-color="#32C5FF" stop-opacity="1" /></linearGradient><filter id="filter_2" x="0" y="0" width="219.009009009009" height="358.9972144846797" filterUnits="userSpaceOnUse" color-interpolation-filters="sRGB"></filter></defs><g opacity="1" transform="translate(1 1)  rotate(0 110 180)"><path id="矩形" fill-rule="evenodd" style="fill:#32C5FF" transform="translate(0 0)  rotate(0 109.5045045045045 179.49860724233986)" opacity="0.1" d="M20,359L199.01,359C210.06,359 219.01,350.05 219.01,339L219.01,20C219.01,8.95 210.06,0 199.01,0L20,0C8.95,0 0,8.95 0,20L0,339C0,350.05 8.95,359 20,359Z " /><rect id="矩形" style="stroke:url(#linear_0); stroke-width:1; stroke-opacity:100; stroke-dasharray:0 0" transform="translate(0 0)  rotate(0 109.5045045045045 179.49860724233986)" x="0.5" y="0.5" rx="19.5"  width="218.009009009009" height="357.9972144846797" /><rect  id="矩形" style="stroke:#24205eFFF; stroke-width:2; stroke-opacity:1; stroke-dasharray:0 0" transform="translate(0 0)  rotate(0 109.5045045045045 179.49860724233986)" x="1" y="1" rx="19"  width="219.009009009009" height="356.9972144846797" /><path id="矩形" fill-rule="evenodd" style="fill:#32C5FF" transform="translate(0 121.3370473537604)  rotate(0 0.49549549549549554 28.579387186629525)" opacity="1" d="M0.5,57.16L0.5,57.16C0.77,57.16 0.99,56.93 0.99,56.66L0.99,0.5C0.99,0.23 0.77,0 0.5,0L0.5,0C0.37,0 0.24,0.05 0.15,0.15C0.05,0.24 0,0.37 0,0.5L0,56.66C0,56.79 0.05,56.92 0.15,57.01C0.24,57.11 0.37,57.16 0.5,57.16Z " /><path id="矩形复制 79" fill-rule="evenodd" style="fill:#32C5FF" transform="translate(219.009009009009 80.22284122562674)  rotate(0 0.49549549549549 28.579387186629525)" opacity="1" d="M0.5,57.16L0.5,57.16C0.77,57.16 0.99,56.93 0.99,56.66L0.99,0.5C0.99,0.23 0.77,0 0.5,0L0.5,0C0.37,0 0.24,0.05 0.15,0.15C0.05,0.24 0,0.37 0,0.5L0,56.66C0,56.79 0.05,56.92 0.15,57.01C0.24,57.11 0.37,57.16 0.5,57.16Z " /><path id="矩形复制 138" fill-rule="evenodd" style="fill:#32C5FF" transform="translate(0 291.8105849582172)  rotate(0 0.49549549549549554 11.53203342618386)" opacity="1" d="M0.5,23.06L0.5,23.06C0.77,23.06 0.99,22.84 0.99,22.57L0.99,0.5C0.99,0.23 0.77,0 0.5,0L0.5,0C0.37,0 0.24,0.05 0.15,0.15C0.05,0.24 0,0.37 0,0.5L0,22.57C0,22.84 0.23,23.06 0.5,23.06Z " /><path id="矩形复制 139" fill-rule="evenodd" style="fill:#32C5FF" transform="translate(219.009009009009 233.6490250696379)  rotate(0 0.49549549549549 11.532033426183846)" opacity="1" d="M0.5,23.06L0.5,23.06C0.77,23.06 0.99,22.84 0.99,22.57L0.99,0.5C0.99,0.23 0.77,0 0.5,0L0.5,0C0.37,0 0.24,0.05 0.15,0.15C0.05,0.24 0,0.37 0,0.5L0,22.57C0,22.84 0.23,23.06 0.5,23.06Z " /><path id="矩形复制 80" fill-rule="evenodd" style="fill:#32C5FF" transform="translate(143.6891891891894 -12.8769856207182)  rotate(90 0.5 13.378378378378365)" opacity="1" d="M0.5,26.76L0.5,26.76C0.63,26.76 0.76,26.71 0.85,26.61C0.95,26.52 1,26.39 1,26.26L1,0.5C1,0.37 0.95,0.24 0.85,0.15C0.76,0.05 0.63,0 0.5,0L0.5,0C0.37,0 0.24,0.05 0.15,0.15C0.05,0.24 0,0.37 0,0.5L0,26.26C0,26.39 0.05,26.52 0.15,26.61C0.24,26.71 0.37,26.76 0.5,26.76Z " /><path id="矩形复制 106" fill-rule="evenodd" style="fill:#32C5FF" transform="translate(55.49099099099101 345.1174433486411)  rotate(90 0.5 13.378378378378375)" opacity="1" d="M0.5,26.76L0.5,26.76C0.63,26.76 0.76,26.71 0.85,26.61C0.95,26.52 1,26.39 1,26.26L1,0.5C1,0.37 0.95,0.24 0.85,0.15C0.76,0.05 0.63,0 0.5,0L0.5,0C0.37,0 0.24,0.05 0.15,0.15C0.05,0.24 0,0.37 0,0.5L0,26.26C0,26.39 0.05,26.52 0.15,26.61C0.24,26.71 0.37,26.76 0.5,26.76Z " /><path id="矩形复制 107" fill-rule="evenodd" style="fill:#32C5FF" transform="translate(168.463963963964 353.0571658008984)  rotate(90 0.5 6.44144144144145)" opacity="1" d="M0.5,12.88L0.5,12.88C0.77,12.88 1,12.66 1,12.39L1,0.5C1,0.37 0.95,0.24 0.85,0.15C0.76,0.05 0.63,0 0.5,0L0.5,0C0.37,0 0.24,0.05 0.15,0.15C0.05,0.24 0,0.37 0,0.5L0,12.39C0,12.66 0.23,12.88 0.5,12.88Z " /><path id="矩形复制 135" fill-rule="evenodd" style="fill:#32C5FF" transform="translate(41.61711711711708 -4.937263168460941)  rotate(90 0.5 6.44144144144144)" opacity="1" d="M0.5,12.88L0.5,12.88C0.77,12.88 1,12.66 1,12.39L1,0.5C1,0.37 0.95,0.24 0.85,0.15C0.76,0.05 0.63,0 0.5,0L0.5,0C0.37,0 0.24,0.05 0.15,0.15C0.05,0.24 0,0.37 0,0.5L0,12.39C0,12.66 0.23,12.88 0.5,12.88Z " /></g></svg>