<svg xmlns="http://www.w3.org/2000/svg" xmlns:xlink="http://www.w3.org/1999/xlink" width="620" height="232" viewBox="0 0 620 232" fill="none"><defs><linearGradient id="linear_0" x1="50%" y1="48.51140202702703%" x2="51%" y2="100%" gradientUnits="objectBoundingBox"><stop offset="0" stop-color="#32C5FF" stop-opacity="1" /><stop offset="0.4851140202702703" stop-color="#24205e9F9" stop-opacity="1" /><stop offset="1" stop-color="#32C5FF" stop-opacity="1" /></linearGradient><filter id="filter_2" x="1" y="0" width="618" height="229.9999999999999" filterUnits="userSpaceOnUse" color-interpolation-filters="sRGB"></filter></defs><g opacity="1" transform="translate(0 1)  rotate(0 310 115)"><path id="矩形" fill-rule="evenodd" style="fill:#32C5FF" transform="translate(1 0)  rotate(0 309 114.99999999999994)" opacity="0.1" d="M20,230L598,230C609.05,230 618,221.05 618,210L618,20C618,8.95 609.05,0 598,0L20,0C8.95,0 0,8.95 0,20L0,210C0,221.05 8.95,230 20,230Z " /><rect id="矩形" style="stroke:url(#linear_0); stroke-width:1; stroke-opacity:100; stroke-dasharray:0 0" transform="translate(1 0)  rotate(0 309 114.99999999999994)" x="0.5" y="0.5" rx="19.5"  width="617" height="228.9999999999999" /><rect  id="矩形" style="stroke:#24205eFFF; stroke-width:2; stroke-opacity:1; stroke-dasharray:0 0" transform="translate(1 0)  rotate(0 309 114.99999999999994)" x="1" y="1" rx="19"  width="618" height="227.9999999999999" /><path id="矩形" fill-rule="evenodd" style="fill:#32C5FF" transform="translate(0 80.04405286343611)  rotate(0 1 19.251101321585907)" opacity="1" d="M1,38.5L1,38.5C1.27,38.5 1.52,38.39 1.71,38.21C1.89,38.02 2,37.77 2,37.5L2,1C2,0.73 1.89,0.48 1.71,0.29C1.52,0.11 1.27,0 1,0L1,0C0.73,0 0.48,0.11 0.29,0.29C0.11,0.48 0,0.73 0,1L0,37.5C0,37.77 0.11,38.02 0.29,38.21C0.48,38.39 0.73,38.5 1,38.5Z " /><path id="矩形复制 79" fill-rule="evenodd" style="fill:#32C5FF" transform="translate(618 52.68722466960352)  rotate(0 1 19.2511013215859)" opacity="1" d="M1,38.5L1,38.5C1.27,38.5 1.52,38.39 1.71,38.21C1.89,38.02 2,37.77 2,37.5L2,1C2,0.73 1.89,0.48 1.71,0.29C1.52,0.11 1.27,0 1,0L1,0C0.73,0 0.48,0.11 0.29,0.29C0.11,0.48 0,0.73 0,1L0,37.5C0,37.77 0.11,38.02 0.29,38.21C0.48,38.39 0.73,38.5 1,38.5Z " /><path id="矩形复制 138" fill-rule="evenodd" style="fill:#32C5FF" transform="translate(1 191.4977973568282)  rotate(0 1 8.10572687224669)" opacity="1" d="M1,16.21L1,16.21C1.27,16.21 1.52,16.1 1.71,15.92C1.89,15.73 2,15.48 2,15.21L2,1C2,0.73 1.89,0.48 1.71,0.29C1.52,0.11 1.27,0 1,0L1,0C0.73,0 0.48,0.11 0.29,0.29C0.11,0.48 0,0.73 0,1L0,15.21C0,15.48 0.11,15.73 0.29,15.92C0.48,16.1 0.73,16.21 1,16.21Z " /><path id="矩形复制 139" fill-rule="evenodd" style="fill:#32C5FF" transform="translate(618 155.022026431718)  rotate(0 1 8.10572687224669)" opacity="1" d="M1,16.21L1,16.21C1.27,16.21 1.52,16.1 1.71,15.92C1.89,15.73 2,15.48 2,15.21L2,1C2,0.73 1.89,0.48 1.71,0.29C1.52,0.11 1.27,0 1,0L1,0C0.73,0 0.48,0.11 0.29,0.29C0.11,0.48 0,0.73 0,1L0,15.21C0,15.48 0.11,15.73 0.29,15.92C0.48,16.1 0.73,16.21 1,16.21Z " /><path id="矩形复制 80" fill-rule="evenodd" style="fill:#32C5FF" transform="translate(404 -36.99339207048452)  rotate(90 0.5 37.5)" opacity="1" d="M0.5,75L0.5,75C0.59,75 0.67,74.97 0.73,74.9C0.8,74.84 0.83,74.76 0.83,74.67L0.83,0.33C0.83,0.24 0.8,0.16 0.73,0.1C0.67,0.03 0.59,0 0.5,0L0.5,0C0.41,0 0.33,0.03 0.27,0.1C0.2,0.16 0.17,0.24 0.17,0.33L0.17,74.67C0.17,74.76 0.2,74.84 0.27,74.9C0.33,74.97 0.41,75 0.5,75Z " /><path id="矩形复制 106" fill-rule="evenodd" style="fill:#32C5FF" transform="translate(156 191.9933920704846)  rotate(90 0.5 37.5)" opacity="1" d="M0.5,75L0.5,75C0.59,75 0.67,74.97 0.73,74.9C0.8,74.84 0.83,74.76 0.83,74.67L0.83,0.33C0.83,0.24 0.8,0.16 0.73,0.1C0.67,0.03 0.59,0 0.5,0L0.5,0C0.41,0 0.33,0.03 0.27,0.1C0.2,0.16 0.17,0.24 0.17,0.33L0.17,74.67C0.17,74.76 0.2,74.84 0.27,74.9C0.33,74.97 0.41,75 0.5,75Z " /><path id="矩形复制 107" fill-rule="evenodd" style="fill:#32C5FF" transform="translate(475 210.9933920704847)  rotate(90 0.5 18.5)" opacity="1" d="M0.5,37L0.5,37C0.59,37 0.67,36.97 0.73,36.9C0.8,36.84 0.83,36.76 0.83,36.67L0.83,0.33C0.83,0.24 0.8,0.16 0.73,0.1C0.67,0.03 0.59,0 0.5,0L0.5,0C0.41,0 0.33,0.03 0.27,0.1C0.2,0.16 0.17,0.24 0.17,0.33L0.17,36.67C0.17,36.76 0.2,36.84 0.27,36.9C0.33,36.97 0.41,37 0.5,37Z " /><path id="矩形复制 135" fill-rule="evenodd" style="fill:#32C5FF" transform="translate(118 -17.99339207048441)  rotate(90 0.5 18.5)" opacity="1" d="M0.5,37L0.5,37C0.59,37 0.67,36.97 0.73,36.9C0.8,36.84 0.83,36.76 0.83,36.67L0.83,0.33C0.83,0.24 0.8,0.16 0.73,0.1C0.67,0.03 0.59,0 0.5,0L0.5,0C0.41,0 0.33,0.03 0.27,0.1C0.2,0.16 0.17,0.24 0.17,0.33L0.17,36.67C0.17,36.76 0.2,36.84 0.27,36.9C0.33,36.97 0.41,37 0.5,37Z " /></g></svg>