<svg xmlns="http://www.w3.org/2000/svg" xmlns:xlink="http://www.w3.org/1999/xlink" width="14" height="14" viewBox="0 0 14 14" fill="none"><g opacity="1" transform="translate(0 0)  rotate(0 7 7)"><g opacity="1" transform="translate(0 0)  rotate(0 7 7)"><path id="矩形" fill-rule="evenodd" style="fill:#000000" transform="translate(0 0.01280878316559927)  rotate(0 6.558096980786825 6.558096980786825)" opacity="0" d="M0,13.12L13.12,13.12L13.12,0L0,0L0,13.12Z " /><path id="路径" fill-rule="evenodd" style="fill:#00FBFF" transform="translate(0.003818577797651527 0.01279649271460398)  rotate(0 6.99745323715012 6.558101596353685)" opacity="1" d="M0.17,5.81C1.16,6.94 2.94,8.8 2.94,8.8C2.94,8.8 2.65,10.85 2.49,12.25C2.43,12.97 2.98,13.27 3.61,12.99C4.81,12.44 6.62,11.58 7.04,11.39C7.44,11.59 9.25,12.46 10.43,13.01C11.06,13.29 11.61,12.99 11.54,12.27C11.37,10.87 11.08,8.81 11.08,8.81C11.08,8.81 12.84,6.94 13.83,5.81C14.18,5.41 13.96,4.81 13.27,4.71C11.86,4.46 9.67,4.05 9.67,4.05C9.67,4.05 8.48,1.96 7.72,0.68C7.46,0.21 7.25,0.05 7.12,0.01C7.12,0.01 6.78,-0.1 6.36,0.68C5.6,1.96 4.38,4.05 4.38,4.05C4.38,4.05 2.17,4.46 0.74,4.71C0.04,4.81 -0.19,5.4 0.17,5.81Z " /></g></g></svg>